<?xml version="1.0" standalone="no"?>
<!DOCTYPE svg PUBLIC "-//W3C//DTD SVG 20010904//EN"
 "http://www.w3.org/TR/2001/REC-SVG-20010904/DTD/svg10.dtd">
<svg version="1.0" xmlns="http://www.w3.org/2000/svg"
 width="512.000000pt" height="512.000000pt" viewBox="0 0 512.000000 512.000000"
 preserveAspectRatio="xMidYMid meet">

<g transform="translate(0.000000,512.000000) scale(0.100000,-0.100000)"
fill="#333" stroke="none">
<path d="M2056 5102 l-79 -16 34 -25 c118 -87 172 -185 149 -270 -17 -63 -68
-122 -134 -155 -90 -44 -177 -45 -411 -7 -104 18 -235 36 -290 42 -187 18
-372 -19 -511 -102 -54 -32 -184 -144 -184 -158 0 -3 42 -16 93 -29 268 -64
391 -179 314 -293 -30 -45 -69 -69 -190 -121 -457 -193 -623 -335 -651 -557
-6 -49 -6 -53 11 -46 171 75 289 66 350 -25 18 -25 23 -47 23 -92 0 -95 -26
-132 -214 -311 -214 -205 -273 -292 -321 -477 -17 -64 -35 -260 -25 -260 3 0
21 10 40 23 227 151 393 8 485 -418 13 -60 27 -136 30 -168 4 -31 12 -60 18
-64 7 -4 8 0 3 12 -14 36 -19 508 -7 655 47 579 210 1040 507 1437 127 168
356 384 559 525 405 282 1024 490 1588 534 48 4 87 10 87 13 0 3 -19 20 -42
36 -209 149 -475 266 -715 314 -128 26 -394 28 -517 3z"/>
<path d="M3995 5101 c-211 -76 -392 -226 -478 -400 -24 -47 -46 -95 -49 -107
-5 -19 -15 -22 -124 -28 -485 -30 -973 -169 -1352 -387 -590 -340 -958 -857
-1072 -1505 -69 -397 -42 -795 76 -1112 97 -258 225 -454 438 -668 367 -367
902 -638 1597 -809 162 -40 437 -88 476 -83 25 3 29 10 49 93 58 231 82 463
64 623 -22 204 -73 331 -239 599 -122 197 -180 304 -221 406 -111 277 -133
648 -51 855 27 68 87 155 143 208 47 45 146 114 164 114 6 0 19 -19 30 -42 65
-149 207 -306 352 -392 99 -59 270 -119 386 -136 l84 -13 27 -74 c47 -134 123
-237 192 -264 37 -14 110 -11 143 6 27 14 32 14 62 -5 90 -55 201 7 318 175
81 118 104 177 104 265 1 124 -53 237 -171 361 -49 51 -57 66 -74 136 -105
414 -324 886 -562 1210 -67 91 -68 93 -78 180 -22 185 18 415 98 577 l35 69
-61 -6 c-81 -7 -172 -50 -243 -116 -32 -29 -58 -50 -58 -47 0 4 18 78 40 166
22 88 40 162 40 165 0 9 -34 4 -85 -14z m236 -1671 c33 -35 71 -89 87 -118 23
-45 25 -54 12 -63 -8 -5 -35 -7 -58 -4 -98 14 -178 72 -202 149 -12 38 -9 143
5 165 8 15 80 -45 156 -129z"/>
</g>
</svg>
